<svg class="logo__icon" version="1.1" xmlns="http://www.w3.org/2000/svg" xmlns:xlink="http://www.w3.org/1999/xlink"
        viewBox="-50 100 1050 654" xml:space="preserve">
        <path class="shadow" fill="#0000001a" d="M874.84,169.63c-2.53,62.96-31.32,119.91-80.68,155.34c-41.13,29.42-84.79,40.81-124.34,55.05
			c46.19-6.01,94.6-16.14,137.31-45.88c62.33-42.71,114.21-108.83,130.98-170.85C921.03,161.72,892.87,167.73,874.84,169.63
			L874.84,169.63z" />
        <path class="leaf" fill="#70a027" d="M511.32,449.31l43.34-40.5l18.98-17.4c25.31-23.73,51.25-46.82,76.56-70.24
			c33.54-30.69,70.87-55.05,107.25-81.63c31.95-23.41,56.95-47.77,75.3-82.89c1.27-2.53-6.33,5.06-6.96,6.01
			c-6.01,8.23-12.02,15.82-19.3,23.41c-15.5,15.5-34.49,28.16-53.15,39.55c-40.5,25.31-81.31,49.04-116.11,82.26
			c-24.36,23.41-48.72,49.67-72.77,74.03l-18.03,18.35l-41.76,42.08l-31.64,31.95l-1.27,6.01l6.64-0.63L511.32,449.31z
			M538.21,393.94l46.51-52.2c-2.85-72.13,43.03-124.97,105.99-153.13c81.94-36.7,140.79-58.53,177.17-96.81
			c24.04,89.85-1.58,184.77-69.92,233.17c-65.49,46.82-147.75,61.06-189.51,69.29c-19.62,3.8-34.49,11.71-48.09,21.51
			c1.27,1.9,2.53,3.48,3.8,5.38c31.32,48.09,17.4,112-30.37,143.32c-48.09,31.01-112,17.4-143.32-30.69
			c-31.01-47.77-17.4-112,30.69-143C457.85,366.73,504.67,369.26,538.21,393.94L538.21,393.94z" />
        <path class="circle" fill="#e74c0a" d="M476.2,238.6c36.7,0,71.82,8.23,102.82,23.41c-7.28,16.14-12.34,33.54-15.19,51.89
			c-25.94-13.92-56-22.15-87.64-22.15c-50.94,0-97.13,20.56-130.35,54.1c-33.54,33.22-54.1,79.41-54.1,130.35
			s20.56,96.81,54.1,130.35c33.22,33.22,79.41,53.78,130.35,53.78c50.94,0,96.81-20.56,130.35-53.78
			c33.22-33.54,53.78-79.41,53.78-130.35c0-22.15-3.8-43.66-11.07-63.28c16.14-3.48,33.54-7.91,51.89-13.29
			c8.23,24.04,12.66,49.67,12.66,76.56c0,65.49-26.58,124.97-69.6,168c-43.03,43.03-102.51,69.6-168,69.6
			c-65.81,0-124.97-26.58-168-69.6c-43.03-43.03-69.6-102.51-69.6-168c0-65.81,26.58-124.97,69.6-168S410.39,238.6,476.2,238.6
			L476.2,238.6z" />
    </svg>