<svg version="1.1" id="Слой_1" xmlns="http://www.w3.org/2000/svg" x="0" y="0" viewBox="0 0 475.2 475.2" xml:space="preserve"><style>.st0{fill:#e74c0a}</style><path class="st0" d="M219.53 337.64h-27.12c-8.98 0-16.29-7.31-16.29-16.3v-27.11c0-8.98 7.31-16.29 16.29-16.29h27.12c8.98 0 16.29 7.31 16.29 16.29v27.11c0 8.98-7.31 16.3-16.29 16.3zm-27.12-49.71c-3.47 0-6.29 2.82-6.29 6.29v27.11c0 3.47 2.82 6.3 6.29 6.3h27.12c3.47 0 6.29-2.83 6.29-6.3v-27.11c0-3.47-2.82-6.29-6.29-6.29h-27.12zm27.12-13.56h-27.12c-8.98 0-16.29-7.31-16.29-16.3v-27.11c0-8.98 7.31-16.29 16.29-16.29h27.12c8.98 0 16.29 7.31 16.29 16.29v27.11c0 8.99-7.31 16.3-16.29 16.3zm-27.12-49.7c-3.47 0-6.29 2.82-6.29 6.29v27.11c0 3.47 2.82 6.3 6.29 6.3h27.12c3.47 0 6.29-2.83 6.29-6.3v-27.11c0-3.47-2.82-6.29-6.29-6.29h-27.12zm90.39 112.97h-27.11c-8.98 0-16.29-7.31-16.29-16.3v-27.11c0-8.98 7.31-16.29 16.29-16.29h27.11c8.98 0 16.29 7.31 16.29 16.29v27.11c0 8.98-7.31 16.3-16.29 16.3zm-27.11-49.71c-3.47 0-6.29 2.82-6.29 6.29v27.11c0 3.47 2.82 6.3 6.29 6.3h27.11c3.47 0 6.29-2.83 6.29-6.3v-27.11c0-3.47-2.82-6.29-6.29-6.29h-27.11zm27.11-13.56h-27.11c-8.98 0-16.29-7.31-16.29-16.3v-27.11c0-8.98 7.31-16.29 16.29-16.29h27.11c8.98 0 16.29 7.31 16.29 16.3v27.11c0 8.98-7.31 16.29-16.29 16.29zm-27.11-49.7c-3.47 0-6.29 2.82-6.29 6.29v27.11c0 3.47 2.82 6.3 6.29 6.3h27.11c3.47 0 6.29-2.83 6.29-6.3v-27.11c0-3.47-2.82-6.3-6.29-6.3h-27.11z"/><path class="st0" d="M384.04 234.93v-.29c-.26-12.77-2.18-25.5-5.75-37.83 0-.01-.01-.03-.01-.04-.31-1.08-.64-2.17-.98-3.24 0-.01 0-.01-.01-.02-6.86-21.8-18.92-42.28-36.09-59.46-15.5-15.5-33.6-26.79-52.91-33.89-.09-.03-.19-.07-.28-.1-.91-.33-1.82-.66-2.73-.97-.32-.11-.65-.22-.98-.33-.7-.23-1.4-.47-2.1-.69-.6-.19-1.21-.38-1.82-.56-.44-.13-.88-.27-1.32-.4-.96-.28-1.92-.55-2.88-.81l-.31-.09a146.44 146.44 0 00-38.24-5.07c-20.71 0-40.42 4.31-58.28 12.06-.12.05-.24.1-.36.16-.91.4-1.82.81-2.72 1.22-.27.13-.54.25-.81.38-.75.35-1.5.71-2.25 1.08-.4.2-.81.4-1.21.6l-1.83.93c-.52.27-1.03.54-1.55.82-.49.26-.98.53-1.47.8-.6.33-1.2.67-1.8 1-.4.23-.81.46-1.21.69-.66.38-1.31.77-1.96 1.16-.34.21-.69.42-1.03.63-.68.42-1.37.85-2.05 1.28-.31.2-.63.4-.94.6-.69.44-1.37.89-2.05 1.35l-.93.63c-.66.45-1.32.91-1.98 1.37-.34.24-.68.48-1.01.73-.61.44-1.22.88-1.83 1.33-.39.29-.78.59-1.17.89-.54.41-1.08.82-1.62 1.24-.47.37-.94.75-1.41 1.12-.44.36-.89.71-1.33 1.07-.6.49-1.19.99-1.77 1.49-.31.26-.62.52-.93.79-.79.68-1.57 1.37-2.34 2.06-.11.1-.22.19-.33.29a149.01 149.01 0 00-10.52 10.51c-.22.24-.43.49-.65.73-.56.63-1.13 1.26-1.68 1.91-.39.45-.78.91-1.16 1.37-.36.43-.73.86-1.08 1.29-.49.6-.98 1.21-1.46 1.81l-.71.89c-.56.72-1.11 1.44-1.66 2.16-.15.19-.29.38-.44.58-.6.81-1.2 1.62-1.78 2.44-.08.12-.17.23-.25.35-.62.88-1.24 1.76-1.84 2.65l-.13.19c-.63.93-1.24 1.87-1.85 2.81-.02.04-.05.07-.07.11-.62.96-1.22 1.93-1.81 2.9-.02.03-.04.06-.05.09-.59.97-1.16 1.94-1.73 2.92-.03.05-.06.11-.09.16-.55.95-1.08 1.91-1.6 2.87-.06.1-.11.2-.17.31-.49.91-.98 1.82-1.45 2.74-.09.18-.18.35-.27.53-.43.84-.85 1.69-1.26 2.54-.13.27-.26.55-.4.83-.36.75-.71 1.51-1.06 2.27-.18.39-.35.78-.53 1.17-.29.65-.57 1.29-.85 1.94-.22.52-.44 1.04-.66 1.57-.22.53-.43 1.05-.65 1.58-.26.65-.52 1.31-.77 1.96-.16.41-.31.81-.46 1.22-.29.78-.57 1.56-.85 2.34-.1.29-.21.58-.31.88-.31.89-.61 1.78-.9 2.68-.06.19-.12.38-.19.58-.31.98-.62 1.96-.91 2.95-.03.12-.07.23-.1.35-.31 1.05-.61 2.1-.89 3.15-.02.06-.03.13-.05.19-.29 1.09-.57 2.18-.84 3.28-.01.04-.02.08-.03.11-.27 1.1-.52 2.21-.77 3.32l-.03.13c-.24 1.09-.46 2.18-.68 3.28-.02.08-.03.16-.05.24-.2 1.05-.39 2.11-.57 3.17-.02.14-.05.29-.07.43-.16.99-.32 1.98-.47 2.97-.04.24-.07.49-.1.73-.13.9-.25 1.79-.36 2.69-.05.38-.09.76-.13 1.13-.09.77-.17 1.54-.25 2.31-.06.57-.1 1.14-.15 1.7l-.15 1.77c-.06.85-.11 1.7-.16 2.56l-.06.96c-.25 4.96-.25 9.92 0 14.87l.03.43c.06 1.04.12 2.08.2 3.12.03.4.07.8.1 1.2.06.77.13 1.54.21 2.31l.18 1.69c.07.6.13 1.2.21 1.8.08.67.17 1.34.27 2.01.07.49.13.97.2 1.46.11.75.23 1.49.35 2.23.07.41.13.83.21 1.24.14.79.28 1.57.43 2.36.07.37.14.75.22 1.12.16.8.32 1.59.49 2.39l.24 1.11c.17.78.35 1.56.54 2.34.09.39.19.79.29 1.18.18.74.37 1.47.57 2.2.12.45.24.9.37 1.35.18.66.37 1.32.56 1.97.16.54.32 1.08.48 1.61.17.56.34 1.11.52 1.67l.63 1.95c.14.43.28.85.43 1.28.27.79.55 1.57.83 2.36.1.28.2.56.3.83.34.94.7 1.87 1.06 2.8.05.12.09.24.14.35 7.15 18.11 18.03 35.1 32.68 49.74 3.12 3.12 6.37 6.09 9.74 8.9 1.12.93 2.25 1.84 3.39 2.73.02.01.03.03.05.04a172.832 172.832 0 003.53 2.68c.19.14.39.28.58.42.92.67 1.86 1.34 2.8 1.99l.63.44c.05.04.11.07.16.11 20.14 13.8 43.9 22.7 69.57 24.98l.29.03c1.01.09 2.03.17 3.04.23.11.01.22.01.33.02 1.03.07 2.07.12 3.11.17h.07c2.09.09 4.18.14 6.29.14 4.41 0 8.81-.2 13.18-.59 4.07-.36 8.1-.92 12.1-1.62l1.54-.27c20.3-3.79 38.9-11.64 55.08-22.56.05-.04.1-.07.16-.11.86-.58 1.71-1.17 2.55-1.77l.31-.22c.8-.57 1.59-1.14 2.37-1.73.14-.11.29-.21.43-.32.75-.56 1.49-1.13 2.23-1.71.17-.13.34-.26.51-.4.72-.56 1.43-1.14 2.14-1.71.18-.14.35-.29.53-.43.71-.58 1.41-1.17 2.1-1.77a188.729 188.729 0 002.62-2.3c.14-.13.28-.25.42-.38.73-.67 1.46-1.34 2.18-2.02.1-.1.2-.19.31-.29.78-.74 1.55-1.49 2.31-2.24l.12-.12c4.98-4.95 9.6-10.25 13.81-15.85.07-.09.13-.18.2-.27.59-.79 1.18-1.58 1.75-2.38.35-.49.69-.98 1.03-1.47l.84-1.2c.48-.7.94-1.4 1.41-2.1.13-.2.27-.4.4-.6.55-.84 1.08-1.68 1.61-2.52.04-.07.09-.14.13-.2 4.73-7.58 8.69-15.49 11.89-23.61.02-.05.04-.11.06-.16.37-.94.73-1.88 1.08-2.82.06-.15.11-.31.17-.46.31-.84.61-1.69.9-2.53l.27-.81c.25-.74.49-1.47.73-2.21.13-.39.25-.78.37-1.17.19-.62.38-1.24.57-1.87l.45-1.54c.14-.51.29-1.01.42-1.52.17-.63.34-1.27.51-1.91l.3-1.18c.19-.74.37-1.49.54-2.24.07-.29.14-.58.2-.88.19-.84.37-1.68.55-2.52.04-.21.09-.42.13-.62.19-.91.36-1.83.53-2.75.03-.15.05-.29.08-.44.17-.97.34-1.93.5-2.91.02-.11.03-.22.05-.33.16-.99.3-1.99.44-2.99.01-.1.03-.2.04-.3.13-.99.26-1.99.37-2.99.01-.12.03-.24.04-.36.11-.97.21-1.93.29-2.91.02-.17.03-.35.04-.52.08-.91.15-1.82.21-2.73.02-.27.03-.53.05-.8.05-.82.1-1.63.14-2.45.02-.41.03-.82.05-1.23.03-.67.05-1.35.07-2.02.02-.63.02-1.26.03-1.89 0-.46.01-.92.01-1.37 0-.95-.01-1.95-.03-2.94zm-47.29 96.82c-3.43 3.61-7.05 7.03-10.85 10.24-.13-.02-.25-.03-.38-.06v.31l-.65.54c-2.73 2.28-5.53 4.43-8.41 6.47-.38.27-.77.52-1.15.78-2.9 2.02-5.88 3.91-8.93 5.7-.38.22-.77.43-1.15.65-3.09 1.76-6.23 3.42-9.43 4.91-.37.17-.74.33-1.11.49-3.25 1.5-6.56 2.88-9.92 4.12-.33.12-.67.23-.98.35-2.4.86-4.82 1.66-7.26 2.39l-1.02.3c-.44.13-.88.25-1.32.37l-1.44.39-.2.05c-.81.21-1.61.42-2.42.62-.23.06-.46.11-.7.17-.55.13-1.09.26-1.64.38-8.56 1.92-17.42 3.05-26.5 3.29-.02.01-.03.01-.05.02-1.2.03-2.4.06-3.61.06-3.84 0-7.66-.14-11.45-.46-.07-.1-.15-.19-.21-.29l-.22.22-.84-.08c-3.54-.32-7.05-.78-10.52-1.37-.46-.08-.91-.17-1.37-.26-3.48-.63-6.93-1.39-10.34-2.28-.43-.11-.85-.24-1.27-.35-2.52-.69-5.02-1.44-7.48-2.27-.81-.28-1.62-.56-2.43-.85-.05-.02-.09-.03-.14-.05l-.09-.03c-.38-.14-.76-.29-1.13-.44-3.15-1.16-6.25-2.44-9.31-3.83-.08-.04-.16-.07-.24-.1-.2-.09-.4-.18-.61-.27-.24-.12-.48-.24-.71-.34-2.77-1.31-5.49-2.72-8.17-4.21l-1.02-.57c-.37-.21-.73-.41-1.1-.62l-.12-.07c-.84-.49-1.66-1.01-2.5-1.52-2.15-1.32-4.28-2.68-6.36-4.12-.41-.29-.83-.57-1.24-.86-.15-.11-.3-.22-.46-.33-2.68-1.92-5.3-3.94-7.85-6.05l-.74-.64v-.14c-.06.01-.13.01-.19.02-2.95-2.49-5.8-5.09-8.56-7.85-1.2-1.2-2.37-2.42-3.52-3.66V216.69c0-3.48 1.41-6.7 3.61-8.22l94.32-65.32c.73-.5 1.47-.76 2.22-.76s1.49.26 2.22.76l26.9 18.63a9.996 9.996 0 0010.33.64c3.29-1.73 5.36-5.14 5.36-8.86v-2.92c0-5.29 3.07-8.98 5.83-8.98h27.44c2.76 0 5.83 3.69 5.83 8.98v43.83a10 10 0 004.29 8.21l8.34 5.8c2.18 1.5 3.59 4.73 3.6 8.21V330.6c-.31.33-.61.67-.93 1 0 .04-.03.1-.05.15zm10.99-13.2V216.68c-.01-6.78-3.02-13.06-7.92-16.44l-8.31-5.78v-43.83c0-10.49-7.08-18.98-15.83-18.98h-27.44c-8.74 0-15.83 8.5-15.83 18.98v2.92l-26.9-18.63c-2.44-1.69-5.18-2.54-7.91-2.54s-5.47.85-7.91 2.54l-94.32 65.32c-4.89 3.38-7.91 9.65-7.91 16.44v101.78c-4.78-6.49-8.93-13.3-12.42-20.35-.09-.19-.19-.38-.28-.57-.88-1.79-1.71-3.6-2.51-5.43-.05-.12-.1-.23-.15-.35-.38-.87-.75-1.75-1.1-2.63-.48-1.2-.96-2.4-1.41-3.61-1.34-3.57-2.51-7.18-3.54-10.83-.07-.26-.15-.53-.22-.79-.03-.12-.07-.24-.1-.36-.18-.66-.35-1.33-.52-2-.34-1.34-.68-2.69-.98-4.04-.03-.11-.05-.23-.07-.34-.35-1.6-.68-3.21-.98-4.83l-.03-.17c-.06-.31-.11-.63-.17-.94l-.18-1.1c-.53-3.21-.95-6.45-1.25-9.71l-.07-.98.1-.1c-.06-.04-.11-.09-.16-.13-.58-6.81-.65-13.65-.22-20.47.02-.01.04-.02.05-.03 4.57-71.66 64.24-128.16 136.9-127.91 29.32.1 56.46 9.43 78.68 25.22.05.04.1.07.16.11.77.55 1.53 1.11 2.29 1.67l.59.44c.62.47 1.23.94 1.84 1.41.35.28.7.55 1.05.83.46.36.91.73 1.37 1.1.52.43 1.04.86 1.56 1.3.28.24.57.48.85.72.72.62 1.44 1.24 2.15 1.88l.26.23c1.7 1.53 3.38 3.11 5.02 4.74 48.69 48.43 53.39 124.41 13.77 178.11z"/><linearGradient id="SVGID_1_" gradientUnits="userSpaceOnUse" x1="237.498" y1="421.735" x2="237.498" y2="53.261"><stop offset="0" stop-color="#70a027"/><stop offset=".5" stop-color="#fff"/><stop offset=".557" stop-color="#f0f5e9"/><stop offset=".675" stop-color="#cadcaf"/><stop offset=".845" stop-color="#8db353"/><stop offset=".922" stop-color="#70a027"/></linearGradient><path d="M237.6 73.26a166.871 166.871 0 0140.76 5.06l.04.01.04.01.15.04.13.03a166.57 166.57 0 0137.06 14.51l2.39 1.28c13.03 7.32 25.03 16.43 35.71 27.11 14.77 14.77 26.36 31.75 34.54 50.57l3.48 9.39c6.52 17.57 9.82 36.52 9.82 56.32 0 43.7-17.02 84.97-47.92 116.2-31.24 30.91-72.5 47.93-116.21 47.93-23.64 0-46.43-4.88-67.77-14.5l-1.52-.7c-.92-.42-1.89-.88-2.92-1.38l-.4-.2-.37-.19c-.83-.41-1.65-.82-2.44-1.23l-.08-.04-.36-.19c-14.55-7.56-28.08-17.54-40.2-29.66-30.9-30.9-48.05-72.12-48.28-116.06.23-43.94 17.38-85.16 48.28-116.06 15.72-15.72 34.02-27.9 54.39-36.2 19.7-7.98 40.45-12.05 61.68-12.05m0-20c-46.98 0-94.18 18.12-130.2 54.14s-53.92 83-54.14 130.2c.22 47.2 18.12 94.18 54.14 130.2 13.6 13.6 28.88 24.83 45.12 33.26.15.08.31.16.46.24.93.48 1.86.94 2.8 1.4l.84.42c1.11.54 2.23 1.07 3.35 1.58 23.59 10.91 49.9 17.02 77.63 17.02 50.94 0 96.81-20.56 130.35-53.78 33.22-33.54 53.78-79.41 53.78-130.35 0-22.15-3.8-43.66-11.07-63.28.08-.02.16-.04.24-.05-8.92-24.48-23.23-47.45-42.87-67.1-13-13-27.43-23.62-42.78-31.91 0 .01 0 .02-.01.03a187.568 187.568 0 00-41.52-16.25c-.12-.03-.25-.06-.37-.1-1.28-.33-2.57-.63-3.86-.93-13.74-3.15-27.8-4.74-41.89-4.74z" fill="url(#SVGID_1_)"/></svg>