<svg version="1.1" id="Capa_1" xmlns="http://www.w3.org/2000/svg" x="0" y="0" width="573.75" height="573.75" xml:space="preserve"><path d="M143.438 439.875h286.875V459H143.438zm0 57.375h286.875v19.125H143.438z"/><circle cx="449.438" cy="267.75" r="19.125"/><path d="M506.812 172.125h-38.25V38.25c0-21.038-17.213-38.25-38.25-38.25H143.438c-21.038 0-38.25 17.212-38.25 38.25v133.875h-38.25c-32.513 0-57.375 24.862-57.375 57.375v172.125C9.562 434.138 34.425 459 66.938 459h38.25v76.5c0 21.037 17.212 38.25 38.25 38.25h286.875c21.037 0 38.25-17.213 38.25-38.25V459h38.25c32.513 0 57.375-24.862 57.375-57.375V229.5c0-32.513-24.863-57.375-57.376-57.375zM124.312 38.25c0-9.562 7.65-19.125 19.125-19.125h286.875c9.562 0 19.125 7.65 19.125 19.125v133.875H124.312V38.25zM449.438 535.5c0 9.562-7.65 19.125-19.125 19.125H143.438c-9.562 0-19.125-7.65-19.125-19.125V401.625h325.125V535.5zm95.624-133.875c0 21.037-17.213 38.25-38.25 38.25h-38.25V382.5H105.188v57.375h-38.25c-21.038 0-38.25-17.213-38.25-38.25V229.5c0-21.038 17.212-38.25 38.25-38.25h439.875c21.037 0 38.25 17.212 38.25 38.25v172.125z"/></svg>