<svg version="1.1" id="Слой_1" xmlns="http://www.w3.org/2000/svg" x="0" y="0" viewBox="0 0 475.2 475.2" xml:space="preserve"><style>.st0{fill:#e74c0a}</style><path class="st0" d="M384 242.98c-.37 31.4-12.25 63.61-36.21 91.03-25.28 28.92-57.4 45.61-95.57 49.33-44.4 4.32-83.3-9.24-115.76-39.78-25.85-24.33-40.76-54.66-44.47-89.98-4.36-41.5 6.85-78.72 33.8-110.61 26.01-30.77 59.54-47.82 99.74-51.28 27.97-2.41 54.55 2.93 79.46 15.86 24.47 12.7 43.92 30.93 58.14 54.6 13.98 23.3 20.85 48.6 20.87 80.83zm-47.76 87.29c.09.03.18.07.27.1 1.4-1.61 2.85-3.19 4.2-4.84 2.59-3.19 5.26-6.33 7.64-9.67 5.29-7.46 9.83-15.36 13.5-23.76 2.84-6.5 5.18-13.17 6.96-20.04 1.72-6.63 3.05-13.33 3.6-20.16.28-3.47.76-6.94.82-10.41.07-4.14-.14-8.28-.37-12.41-.19-3.31-.5-6.62-.96-9.9-.55-3.92-1.12-7.86-2-11.72-1.77-7.7-4.12-15.23-7.22-22.53-2.65-6.23-5.72-12.23-9.22-18.01-4.72-7.81-10.2-15.08-16.48-21.69-4.19-4.41-8.61-8.65-13.3-12.5-4.64-3.81-9.68-7.16-14.69-10.48-7.88-5.22-16.45-9.12-25.32-12.35-6.05-2.2-12.25-3.92-18.54-5.25-2.8-.59-5.63-1.08-8.47-1.46-2.62-.35-5.26-.55-7.9-.73-3.96-.26-7.93-.61-11.89-.61-3.69-.01-7.37.35-11.06.62-2.56.18-5.14.33-7.66.76-4.46.76-8.92 1.59-13.32 2.62-8.81 2.07-17.28 5.13-25.45 9.01-7.43 3.53-14.59 7.56-21.13 12.57-4.84 3.71-9.49 7.67-14.08 11.68-2.31 2.01-4.37 4.33-6.43 6.61-2.55 2.84-5.11 5.7-7.45 8.71-6.53 8.41-12.02 17.45-16.4 27.18-3.29 7.33-6.05 14.85-7.86 22.66-1.19 5.12-2.12 10.31-2.9 15.51-.62 4.11-1 8.28-1.17 12.44-.16 4.06-.07 8.15.2 12.21.31 4.78.82 9.56 1.44 14.32.94 7.17 2.76 14.15 5 21.02 3.08 9.43 7.15 18.4 12.22 26.93 4.87 8.2 10.6 15.74 16.99 22.8.26.29.6.51 1.1.93v-1.76c.08-11.14.08-22.29.31-33.43.06-2.84.65-5.71 1.29-8.5 1.33-5.85 3.48-11.41 6.39-16.69 2.48-4.52 5.41-8.72 8.91-12.46 2.51-2.68 5.33-5.1 8.17-7.45 5.38-4.47 11.54-7.6 18.11-9.93 6.99-2.48 14.23-3.6 21.62-3.61 22.56-.04 45.12-.03 67.67.01 2.81.01 5.64.16 8.43.53 4.68.62 9.26 1.69 13.72 3.29 7.95 2.85 15.03 7.15 21.32 12.73 3.9 3.47 7.33 7.4 10.25 11.75 7.33 10.92 11.09 22.96 11.14 36.12.04 9.32.01 18.64.01 27.96-.01.42-.01.85-.01 1.28zm-184.38-11.48h-.05c0 7.16.01 14.32-.01 21.48 0 .72.14 1.25.75 1.74 5.63 4.54 11.56 8.63 17.82 12.27 6.84 3.99 13.99 7.29 21.42 9.99 9.5 3.45 19.25 5.85 29.3 6.99 6.35.72 12.7 1.36 19.11.95 2.85-.18 5.73-.15 8.56-.49 5.41-.66 10.83-1.3 16.17-2.34 9.44-1.84 18.52-4.88 27.33-8.79 6.11-2.7 11.99-5.8 17.54-9.47 4.25-2.81 8.31-5.88 12.45-8.86.84-.6 1.25-1.35 1.25-2.51-.05-12.76.06-25.52-.09-38.27-.04-3.78-.47-7.61-1.22-11.32-2.01-9.91-6.83-18.41-13.92-25.58-2.83-2.87-6.03-5.34-9.5-7.47-8.36-5.14-17.46-7.69-27.22-7.75-15.64-.09-31.27-.05-46.91-.02-7.91.02-15.82.11-23.72.2-5.27.06-10.33 1.24-15.28 3-8.08 2.88-14.89 7.65-20.61 13.96-4.2 4.63-7.47 9.89-9.74 15.73-1.92 4.96-3.28 10.08-3.4 15.41-.15 7.07-.03 14.11-.03 21.15z"/><path class="st0" d="M237.43 227.81c-27.16.05-46.75-21.36-48.59-44.63-1.08-13.68 2.84-25.96 11.89-36.29 10.54-12.04 24.08-17.45 40.01-16.57 24.2 1.34 45.96 21.53 45.7 49.33-.24 26.48-21.88 48.42-49.01 48.16zm.07-86.24c-20.21-.36-37.33 16.67-37.41 37.17-.08 21.3 17.13 37.21 36.56 37.81 20.22.62 40.09-16.64 38.36-40.54-1.29-17.92-16.69-34.64-37.51-34.44z"/><linearGradient id="SVGID_1_" gradientUnits="userSpaceOnUse" x1="237.498" y1="421.735" x2="237.498" y2="53.261"><stop offset="0" stop-color="#70a027"/><stop offset=".5" stop-color="#fff"/><stop offset=".557" stop-color="#f0f5e9"/><stop offset=".675" stop-color="#cadcaf"/><stop offset=".845" stop-color="#8db353"/><stop offset=".922" stop-color="#70a027"/></linearGradient><path d="M237.6 73.26a166.871 166.871 0 0140.76 5.06l.04.01.04.01.15.04.13.03a166.57 166.57 0 0137.06 14.51l2.39 1.28c13.03 7.32 25.03 16.43 35.71 27.11 14.77 14.77 26.36 31.75 34.54 50.57l3.48 9.39c6.52 17.57 9.82 36.52 9.82 56.32 0 43.7-17.02 84.97-47.92 116.2-31.24 30.91-72.5 47.93-116.21 47.93-23.64 0-46.43-4.88-67.77-14.5l-1.52-.7c-.92-.42-1.89-.88-2.92-1.38l-.4-.2-.37-.19c-.83-.41-1.65-.82-2.44-1.23l-.08-.04-.36-.19c-14.55-7.56-28.08-17.54-40.2-29.66-30.9-30.9-48.05-72.12-48.28-116.06.23-43.94 17.38-85.16 48.28-116.06 15.72-15.72 34.02-27.9 54.39-36.2 19.7-7.98 40.45-12.05 61.68-12.05m0-20c-46.98 0-94.18 18.12-130.2 54.14s-53.92 83-54.14 130.2c.22 47.2 18.12 94.18 54.14 130.2 13.6 13.6 28.88 24.83 45.12 33.26.15.08.31.16.46.24.93.48 1.86.94 2.8 1.4l.84.42c1.11.54 2.23 1.07 3.35 1.58 23.59 10.91 49.9 17.02 77.63 17.02 50.94 0 96.81-20.56 130.35-53.78 33.22-33.54 53.78-79.41 53.78-130.35 0-22.15-3.8-43.66-11.07-63.28.08-.02.16-.04.24-.05-8.92-24.48-23.23-47.45-42.87-67.1-13-13-27.43-23.62-42.78-31.91 0 .01 0 .02-.01.03a187.568 187.568 0 00-41.52-16.25c-.12-.03-.25-.06-.37-.1-1.28-.33-2.57-.63-3.86-.93-13.74-3.15-27.8-4.74-41.89-4.74z" fill="url(#SVGID_1_)"/></svg>