<svg version="1.1" id="Layer_1" xmlns="http://www.w3.org/2000/svg" x="0" y="0" viewBox="0 0 512.001 512.001" xml:space="preserve"><path d="M359.736 158.439l115.73 16.093c26.037 3.62 36.621 35.526 17.909 53.991l-83.169 82.069a31.72 31.72 0 00-8.95 28.129l20.457 115.039c4.603 25.882-22.471 45.807-45.814 33.716L272.146 433.74a31.713 31.713 0 00-29.517.181l-103.087 55.005c-23.193 12.375-50.508-7.216-46.224-33.152l19.045-115.281a31.715 31.715 0 00-9.294-28.017l-84.168-81.044c-18.937-18.234-8.745-50.267 17.246-54.206l115.524-17.51a31.717 31.717 0 0023.774-17.496l51.069-105.092c11.49-23.645 45.103-23.85 56.883-.349l52.352 104.459a31.719 31.719 0 0023.987 17.201z" fill="#ffd92d"/><path d="M121.015 216.636c0-18.048 1.798-35.636 4.438-52.947l-89.306 13.534c-25.992 3.94-36.182 35.972-17.246 54.207l84.172 81.045a31.712 31.712 0 019.29 28.017L93.318 455.773c-4.287 25.936 23.033 45.527 46.224 33.152l72.007-38.422c-56.078-61.903-90.534-143.76-90.534-233.867z" fill="#ffe571"/><path d="M493.378 228.524c18.71-18.464 8.125-50.37-17.91-53.991l-115.731-16.094a31.706 31.706 0 01-23.985-17.204L283.4 36.776c-11.784-23.501-45.398-23.296-56.884.349l-21.785 44.821c74.297 49.588 123.276 134.128 123.276 230.154 0 48.197-12.38 93.478-34.048 132.935l81.94 42.44c23.342 12.09 50.417-7.834 45.816-33.716l-20.461-115.038a31.728 31.728 0 018.95-28.129l83.174-82.068z" fill="#ffa81e"/><g fill="#1c2042"><path d="M499.805 235.052c11.155-11.008 15.02-27.086 10.086-41.96-4.935-14.875-17.642-25.455-33.163-27.613-4.996-.687-9.633 2.798-10.329 7.807-.696 5.008 2.799 9.633 7.807 10.329 8.698 1.208 15.541 6.908 18.307 15.242 2.766 8.336.685 16.996-5.567 23.164l-83.169 82.069a40.856 40.856 0 00-11.533 36.249l20.457 115.039c1.538 8.646-1.766 16.914-8.84 22.12-7.075 5.207-15.951 5.901-23.75 1.863l-103.753-53.737a40.862 40.862 0 00-38.037.233l-103.087 55.005c-7.75 4.134-16.635 3.547-23.772-1.572-7.137-5.118-10.543-13.348-9.112-22.01l19.047-115.281a40.857 40.857 0 00-11.976-36.104L25.253 224.85c-6.327-6.091-8.514-14.724-5.85-23.093 2.662-8.369 9.435-14.152 18.119-15.468l115.525-17.51a40.875 40.875 0 0030.637-22.546l51.069-105.095c3.838-7.899 11.371-12.646 20.154-12.699h.151c8.718 0 16.247 4.647 20.159 12.453l52.353 104.459a40.86 40.86 0 0030.909 22.169l28.135 3.912c5.001.699 9.633-2.798 10.329-7.807.696-5.008-2.799-9.633-7.807-10.329l-28.135-3.912a22.557 22.557 0 01-17.063-12.237L291.583 32.688C284.6 18.755 270.619 10.13 255.051 10.13h-.259c-15.672.096-29.661 8.913-36.51 23.008l-51.067 105.094a22.564 22.564 0 01-16.912 12.447L34.776 168.186c-15.495 2.348-28.071 13.085-32.823 28.018-4.752 14.934-.69 30.964 10.599 41.832l84.168 81.045a22.556 22.556 0 016.611 19.93L84.286 454.294c-2.555 15.462 3.771 30.742 16.504 39.874 7.126 5.111 15.43 7.703 23.785 7.703 6.577 0 13.186-1.606 19.275-4.856l103.088-55.005a22.543 22.543 0 0120.997-.128l103.753 53.737c13.913 7.204 30.399 5.915 43.024-3.376 12.621-9.289 18.757-24.645 16.012-40.073l-20.457-115.039a22.556 22.556 0 016.367-20.01l83.171-82.069z"/><path d="M444.748 179.518l6.095.847a9.157 9.157 0 002.522-18.136l-6.095-.847c-4.999-.687-9.632 2.798-10.329 7.807-.696 5.007 2.8 9.632 7.807 10.329z"/></g><path d="M132.884 447.394a9.155 9.155 0 01-7.248-10.728l11.354-58.645a9.155 9.155 0 0110.728-7.248 9.155 9.155 0 017.248 10.728l-11.354 58.645c-.96 4.964-5.763 8.208-10.728 7.248zm17.712-91.478a9.155 9.155 0 01-7.248-10.728l1.179-6.091a9.155 9.155 0 0110.728-7.248 9.155 9.155 0 017.248 10.728l-1.179 6.091a9.153 9.153 0 01-10.728 7.248z" fill="#fff"/></svg>